<?xml version="1.0" encoding="utf-8"?>
<svg viewBox="0 0 500 500" xmlns="http://www.w3.org/2000/svg" xmlns:bx="https://boxy-svg.com">
  <path id="XMLID_222_" d="M 333.569 237.049 L 233.374 136.856 L 183.569 87.053 C 177.712 81.195 168.214 81.195 162.356 87.054 C 156.499 92.912 156.499 102.409 162.357 108.267 L 301.75 247.657 L 162.356 387.054 C 156.499 392.912 156.499 402.409 162.357 408.267 C 165.285 411.196 169.124 412.66 172.963 412.66 C 176.802 412.66 180.641 411.196 183.57 408.266 L 333.569 258.262 C 336.383 255.449 337.963 251.634 337.963 247.656 C 337.963 243.678 336.383 239.862 333.569 237.049 Z" style="fill: rgb(255, 255, 255);" transform="matrix(-0.999996, -0.002703, 0.002703, -0.999996, 430.852752, 468.841979)" bx:origin="0.321 0.459"/>
  <g transform="matrix(1, 0, 0, 1, 82.962555, 82.660065)" bx:origin="0 0"/>
  <g transform="matrix(1, 0, 0, 1, 82.962555, 82.660065)" bx:origin="0 0"/>
  <g transform="matrix(1, 0, 0, 1, 82.962555, 82.660065)" bx:origin="0 0"/>
  <g transform="matrix(1, 0, 0, 1, 82.962555, 82.660065)" bx:origin="0 0"/>
  <g transform="matrix(1, 0, 0, 1, 82.962555, 82.660065)" bx:origin="0 0"/>
  <g transform="matrix(1, 0, 0, 1, 82.962555, 82.660065)" bx:origin="0 0"/>
  <g transform="matrix(1, 0, 0, 1, 82.962555, 82.660065)" bx:origin="0 0"/>
  <g transform="matrix(1, 0, 0, 1, 82.962555, 82.660065)" bx:origin="0 0"/>
  <g transform="matrix(1, 0, 0, 1, 82.962555, 82.660065)" bx:origin="0 0"/>
  <g transform="matrix(1, 0, 0, 1, 82.962555, 82.660065)" bx:origin="0 0"/>
  <g transform="matrix(1, 0, 0, 1, 82.962555, 82.660065)" bx:origin="0 0"/>
  <g transform="matrix(1, 0, 0, 1, 82.962555, 82.660065)" bx:origin="0 0"/>
  <g transform="matrix(1, 0, 0, 1, 82.962555, 82.660065)" bx:origin="0 0"/>
  <g transform="matrix(1, 0, 0, 1, 82.962555, 82.660065)" bx:origin="0 0"/>
  <g transform="matrix(1, 0, 0, 1, 82.962555, 82.660065)" bx:origin="0 0"/>
</svg>