<?xml version="1.0" encoding="utf-8"?>
<svg viewBox="0 0 500 500" xmlns="http://www.w3.org/2000/svg">
  <path id="XMLID_222_" d="M 328.462 237.503 L 178.462 87.507 C 172.605 81.649 163.107 81.649 157.249 87.508 C 151.392 93.366 151.392 102.863 157.25 108.721 L 296.643 248.111 L 157.249 387.508 C 151.392 393.366 151.392 402.863 157.25 408.721 C 160.178 411.65 164.017 413.114 167.856 413.114 C 171.695 413.114 175.534 411.65 178.463 408.72 L 328.462 258.716 C 331.276 255.903 332.856 252.088 332.856 248.11 C 332.856 244.132 331.276 240.316 328.462 237.503 Z" style="fill: rgb(255, 255, 255);"/>
  <g transform="matrix(1, 0, 0, 1, 77.855972, 83.113831)"/>
  <g transform="matrix(1, 0, 0, 1, 77.855972, 83.113831)"/>
  <g transform="matrix(1, 0, 0, 1, 77.855972, 83.113831)"/>
  <g transform="matrix(1, 0, 0, 1, 77.855972, 83.113831)"/>
  <g transform="matrix(1, 0, 0, 1, 77.855972, 83.113831)"/>
  <g transform="matrix(1, 0, 0, 1, 77.855972, 83.113831)"/>
  <g transform="matrix(1, 0, 0, 1, 77.855972, 83.113831)"/>
  <g transform="matrix(1, 0, 0, 1, 77.855972, 83.113831)"/>
  <g transform="matrix(1, 0, 0, 1, 77.855972, 83.113831)"/>
  <g transform="matrix(1, 0, 0, 1, 77.855972, 83.113831)"/>
  <g transform="matrix(1, 0, 0, 1, 77.855972, 83.113831)"/>
  <g transform="matrix(1, 0, 0, 1, 77.855972, 83.113831)"/>
  <g transform="matrix(1, 0, 0, 1, 77.855972, 83.113831)"/>
  <g transform="matrix(1, 0, 0, 1, 77.855972, 83.113831)"/>
  <g transform="matrix(1, 0, 0, 1, 77.855972, 83.113831)"/>
</svg>